<svg width="204" height="42" viewBox="0 0 204 42" fill="none" xmlns="http://www.w3.org/2000/svg">
<path d="M9.584 41.54C6.74 41.54 4.562 40.73 3.05 39.11C1.574 37.49 0.836 35.204 0.836 32.252V11.948C0.836 8.996 1.574 6.71 3.05 5.09C4.562 3.47 6.74 2.66 9.584 2.66C12.428 2.66 14.588 3.47 16.064 5.09C17.576 6.71 18.332 8.996 18.332 11.948V15.944H12.716V11.57C12.716 9.23 11.726 8.06 9.746 8.06C7.766 8.06 6.776 9.23 6.776 11.57V32.684C6.776 34.988 7.766 36.14 9.746 36.14C11.726 36.14 12.716 34.988 12.716 32.684V26.906H18.332V32.252C18.332 35.204 17.576 37.49 16.064 39.11C14.588 40.73 12.428 41.54 9.584 41.54ZM30.5773 41.54C27.6613 41.54 25.4293 40.712 23.8813 39.056C22.3333 37.4 21.5593 35.06 21.5593 32.036V12.164C21.5593 9.14 22.3333 6.8 23.8813 5.144C25.4293 3.488 27.6613 2.66 30.5773 2.66C33.4933 2.66 35.7253 3.488 37.2733 5.144C38.8213 6.8 39.5953 9.14 39.5953 12.164V32.036C39.5953 35.06 38.8213 37.4 37.2733 39.056C35.7253 40.712 33.4933 41.54 30.5773 41.54ZM30.5773 36.14C32.6293 36.14 33.6553 34.898 33.6553 32.414V11.786C33.6553 9.302 32.6293 8.06 30.5773 8.06C28.5253 8.06 27.4993 9.302 27.4993 11.786V32.414C27.4993 34.898 28.5253 36.14 30.5773 36.14ZM52.1984 41.54C49.2824 41.54 47.0504 40.712 45.5024 39.056C43.9544 37.4 43.1804 35.06 43.1804 32.036V12.164C43.1804 9.14 43.9544 6.8 45.5024 5.144C47.0504 3.488 49.2824 2.66 52.1984 2.66C55.1144 2.66 57.3464 3.488 58.8944 5.144C60.4424 6.8 61.2164 9.14 61.2164 12.164V32.036C61.2164 35.06 60.4424 37.4 58.8944 39.056C57.3464 40.712 55.1144 41.54 52.1984 41.54ZM52.1984 36.14C54.2504 36.14 55.2764 34.898 55.2764 32.414V11.786C55.2764 9.302 54.2504 8.06 52.1984 8.06C50.1464 8.06 49.1204 9.302 49.1204 11.786V32.414C49.1204 34.898 50.1464 36.14 52.1984 36.14ZM65.2335 3.2H71.1735V19.13L78.7335 3.2H84.6735L77.5995 17.078L84.7815 41H78.5715L73.5495 24.152L71.1735 28.958V41H65.2335V3.2Z" fill="#FF8811"/>
<path d="M88.6729 41C88.9249 38.948 89.1769 36.905 89.4289 34.871C89.6809 32.837 89.9509 30.632 90.2389 28.256L91.8589 15.485C92.1469 13.127 92.4169 10.931 92.6689 8.897C92.9209 6.845 93.1909 4.712 93.4789 2.498H99.8509C100.895 5.036 101.885 7.484 102.821 9.842C103.775 12.182 104.72 14.522 105.656 16.862L111.218 30.632H111.677L117.131 16.862C118.049 14.522 118.967 12.191 119.885 9.869C120.821 7.547 121.793 5.09 122.801 2.498H129.146C129.416 4.694 129.677 6.818 129.929 8.87C130.181 10.904 130.46 13.109 130.766 15.485L132.359 28.364C132.647 30.686 132.917 32.846 133.169 34.844C133.421 36.842 133.673 38.894 133.925 41H127.877C127.499 37.85 127.139 34.853 126.797 32.009C126.455 29.165 126.131 26.51 125.825 24.044L124.529 13.406H124.07L119.75 24.854C118.688 27.644 117.626 30.425 116.564 33.197C115.52 35.969 114.548 38.57 113.648 41H109.382C108.788 39.452 108.131 37.778 107.411 35.978C106.691 34.178 105.953 32.333 105.197 30.443C104.459 28.553 103.73 26.708 103.01 24.908L98.4469 13.406H97.9879L96.7189 23.99C96.4129 26.474 96.0889 29.147 95.7469 32.009C95.4049 34.853 95.0359 37.85 94.6399 41H88.6729ZM153.773 41.621C150.479 41.621 147.77 41.009 145.646 39.785C143.522 38.561 141.947 36.887 140.921 34.763C139.913 32.639 139.409 30.2 139.409 27.446C139.409 24.728 139.895 22.316 140.867 20.21C141.857 18.104 143.297 16.466 145.187 15.296C147.077 14.108 149.363 13.514 152.045 13.514C154.367 13.514 156.365 13.955 158.039 14.837C159.713 15.701 161 16.997 161.9 18.725C162.8 20.453 163.25 22.595 163.25 25.151C163.25 25.835 163.232 26.456 163.196 27.014C163.178 27.554 163.124 28.094 163.034 28.634L157.985 26.42C158.021 26.15 158.048 25.889 158.066 25.637C158.084 25.367 158.093 25.115 158.093 24.881C158.093 22.667 157.535 20.957 156.419 19.751C155.321 18.527 153.881 17.915 152.099 17.915C150.713 17.915 149.507 18.293 148.481 19.049C147.455 19.805 146.654 20.84 146.078 22.154C145.52 23.468 145.241 24.98 145.241 26.69V27.554C145.241 29.462 145.565 31.1 146.213 32.468C146.879 33.836 147.887 34.889 149.237 35.627C150.605 36.365 152.324 36.734 154.394 36.734C155.186 36.734 156.05 36.671 156.986 36.545C157.94 36.401 158.894 36.185 159.848 35.897C160.802 35.609 161.702 35.24 162.548 34.79L162.764 39.812C162.08 40.172 161.279 40.487 160.361 40.757C159.443 41.027 158.426 41.234 157.31 41.378C156.212 41.54 155.033 41.621 153.773 41.621ZM141.731 28.634V24.692L159.578 24.476L163.034 25.907V28.634H141.731ZM176.012 41.567C174.482 41.567 173.114 41.261 171.908 40.649C170.702 40.019 169.748 39.119 169.046 37.949C168.362 36.761 168.02 35.321 168.02 33.629C168.02 32.135 168.272 30.884 168.776 29.876C169.298 28.85 169.982 28.013 170.828 27.365C171.674 26.717 172.619 26.213 173.663 25.853C174.707 25.493 175.76 25.232 176.822 25.07L184.787 23.828C184.859 22.334 184.634 21.191 184.112 20.399C183.608 19.607 182.888 19.067 181.952 18.779C181.034 18.491 179.99 18.347 178.82 18.347C178.208 18.347 177.542 18.392 176.822 18.482C176.12 18.572 175.373 18.725 174.581 18.941C173.807 19.139 172.988 19.391 172.124 19.697C171.278 19.985 170.405 20.336 169.505 20.75L169.181 15.62C169.847 15.35 170.594 15.089 171.422 14.837C172.25 14.585 173.141 14.36 174.095 14.162C175.067 13.946 176.066 13.784 177.092 13.676C178.118 13.568 179.162 13.514 180.224 13.514C182.348 13.514 184.166 13.829 185.678 14.459C187.19 15.089 188.351 16.097 189.161 17.483C189.971 18.851 190.376 20.633 190.376 22.829C190.376 23.693 190.376 24.764 190.376 26.042C190.376 27.32 190.376 28.508 190.376 29.606V32.846C190.376 34.124 190.376 35.42 190.376 36.734C190.376 38.048 190.376 39.47 190.376 41H185.165L184.841 37.436H184.328C183.806 38.102 183.149 38.75 182.357 39.38C181.583 40.01 180.656 40.532 179.576 40.946C178.514 41.36 177.326 41.567 176.012 41.567ZM177.902 36.977C178.766 36.977 179.612 36.788 180.44 36.41C181.286 36.014 182.069 35.456 182.789 34.736C183.509 34.016 184.13 33.143 184.652 32.117V27.365C184.382 27.527 184.031 27.68 183.599 27.824C183.185 27.968 182.555 28.13 181.709 28.31C180.863 28.49 179.675 28.715 178.145 28.985C177.263 29.129 176.507 29.39 175.877 29.768C175.247 30.146 174.752 30.641 174.392 31.253C174.05 31.847 173.879 32.558 173.879 33.386C173.879 34.7 174.275 35.627 175.067 36.167C175.877 36.707 176.822 36.977 177.902 36.977ZM198.064 41C198.064 39.038 198.064 37.139 198.064 35.303C198.064 33.467 198.064 31.442 198.064 29.228V14.351C198.064 12.101 198.064 9.905 198.064 7.763C198.064 5.621 198.064 3.524 198.064 1.472L203.842 0.850997C203.842 3.011 203.842 5.198 203.842 7.412C203.842 9.608 203.842 11.921 203.842 14.351V29.228C203.842 31.442 203.842 33.467 203.842 35.303C203.842 37.139 203.842 39.038 203.842 41H198.064Z" fill="#FF0087"/>
</svg>
